<svg xmlns="http://www.w3.org/2000/svg" xmlns:xlink="http://www.w3.org/1999/xlink" viewBox="0 0 106.94 138.63"><defs><style>.cls-1{isolation:isolate;}.cls-2{fill:url(#Degradado_sin_nombre_67);}.cls-3{fill:url(#Degradado_sin_nombre_67-2);}.cls-4{fill:url(#Degradado_sin_nombre_67-3);}.cls-5{fill:url(#Degradado_sin_nombre_67-4);}.cls-6{mix-blend-mode:soft-light;fill:url(#Degradado_sin_nombre_32);}</style><linearGradient id="Degradado_sin_nombre_67" x1="49.81" y1="-3.01" x2="-7.59" y2="127.32" gradientUnits="userSpaceOnUse"><stop offset="0" stop-color="#ff8f18"/><stop offset="0.52" stop-color="#e0277b"/><stop offset="1" stop-color="#7f53f5"/></linearGradient><linearGradient id="Degradado_sin_nombre_67-2" x1="89.02" y1="14.25" x2="31.62" y2="144.58" xlink:href="#Degradado_sin_nombre_67"/><linearGradient id="Degradado_sin_nombre_67-3" x1="89.63" y1="14.51" x2="32.22" y2="144.86" xlink:href="#Degradado_sin_nombre_67"/><linearGradient id="Degradado_sin_nombre_67-4" x1="90.64" y1="14.97" x2="33.24" y2="145.3" xlink:href="#Degradado_sin_nombre_67"/><linearGradient id="Degradado_sin_nombre_32" x1="79.81" y1="36.8" x2="40.99" y2="124.96" gradientUnits="userSpaceOnUse"><stop offset="0" stop-color="#fff" stop-opacity="0"/><stop offset="1" stop-color="#fff"/></linearGradient></defs><title>Ресурс 5-100-21</title><g class="cls-1"><g id="Слой_2" data-name="Слой 2"><g id="OBJECTS"><path class="cls-2" d="M33.56,40.19A2.78,2.78,0,1,0,30.78,43,2.78,2.78,0,0,0,33.56,40.19Z"/><path class="cls-3" d="M80.38,40.19A2.79,2.79,0,1,0,77.59,43,2.79,2.79,0,0,0,80.38,40.19Z"/><path class="cls-4" d="M80.45,96.92,59,98.39a7.46,7.46,0,0,0-2.75.71,7.66,7.66,0,0,0-2.39,1.78L39.43,116.8,40,65.68Z"/><path class="cls-5" d="M106.87,131l-1.62-11.57L93.48,35.48a6.74,6.74,0,0,0-6.67-5.81H80.4V26.14a26.14,26.14,0,0,0-52.28,0v3.53h-8a6.74,6.74,0,0,0-6.67,5.81L.2,130,.07,131a6.73,6.73,0,0,0,6.67,7.67H59.58l-2.52-5.19-4.6-9.51a2.68,2.68,0,0,1,4.82-2.33l5.48,11.34,2.76,5.69H72.3l-3.16-6.53-9.62-19.87a2.68,2.68,0,0,1,4.82-2.33l10.29,21.26,3.62,7.47h6.54l-4.26-8.8-7.82-16.15a2.68,2.68,0,0,1,4.82-2.33l8.24,17,5,10.26h9.46A6.74,6.74,0,0,0,106.87,131ZM83.63,40.19a6,6,0,1,1-6-6A6,6,0,0,1,83.63,40.19Zm-50.16-14A20.82,20.82,0,0,1,54.89,5.36c11.31.33,20.16,9.91,20.16,21.22v3.09H33.47ZM30.78,34a6.24,6.24,0,1,1-6.24,6.24A6.24,6.24,0,0,1,30.78,34ZM85.2,98.36a5,5,0,0,1-4.42,3.52l-21.43,1.46a2.68,2.68,0,0,0-1.81.88L43.11,120.14a5,5,0,0,1-3.68,1.63,5,5,0,0,1-5-5L35,65.64a5,5,0,0,1,8-3.88L83.48,93A5,5,0,0,1,85.2,98.36Z"/><path class="cls-6" d="M80.45,96.92,59,98.39a7.46,7.46,0,0,0-2.75.71L40,65.68Z"/></g></g></g></svg>