<svg xmlns="http://www.w3.org/2000/svg" xmlns:xlink="http://www.w3.org/1999/xlink" viewBox="0 0 423.96 138.63"><defs><style>.cls-1{isolation:isolate;}.cls-2{fill:url(#Degradado_sin_nombre_67);}.cls-3{fill:url(#Degradado_sin_nombre_67-2);}.cls-4{fill:url(#Degradado_sin_nombre_67-3);}.cls-5{fill:url(#Degradado_sin_nombre_67-4);}.cls-6{mix-blend-mode:soft-light;fill:url(#Degradado_sin_nombre_32);}.cls-7{fill:#fff;}.cls-8{fill:#e0277b;}</style><linearGradient id="Degradado_sin_nombre_67" x1="49.81" y1="-3.01" x2="-7.59" y2="127.32" gradientUnits="userSpaceOnUse"><stop offset="0" stop-color="#ff8f18"/><stop offset="0.52" stop-color="#e0277b"/><stop offset="1" stop-color="#7f53f5"/></linearGradient><linearGradient id="Degradado_sin_nombre_67-2" x1="89.02" y1="14.25" x2="31.62" y2="144.58" xlink:href="#Degradado_sin_nombre_67"/><linearGradient id="Degradado_sin_nombre_67-3" x1="89.63" y1="14.51" x2="32.22" y2="144.86" xlink:href="#Degradado_sin_nombre_67"/><linearGradient id="Degradado_sin_nombre_67-4" x1="90.64" y1="14.97" x2="33.24" y2="145.3" xlink:href="#Degradado_sin_nombre_67"/><linearGradient id="Degradado_sin_nombre_32" x1="79.81" y1="36.8" x2="40.99" y2="124.96" gradientUnits="userSpaceOnUse"><stop offset="0" stop-color="#fff" stop-opacity="0"/><stop offset="1" stop-color="#fff"/></linearGradient></defs><title>Ресурс 4-100-21</title><g class="cls-1"><g id="Слой_2" data-name="Слой 2"><g id="OBJECTS"><path class="cls-2" d="M33.56,40.19A2.78,2.78,0,1,0,30.78,43,2.78,2.78,0,0,0,33.56,40.19Z"/><path class="cls-3" d="M80.38,40.19A2.79,2.79,0,1,0,77.59,43,2.79,2.79,0,0,0,80.38,40.19Z"/><path class="cls-4" d="M80.45,96.92,59,98.39a7.46,7.46,0,0,0-2.75.71,7.66,7.66,0,0,0-2.39,1.78L39.43,116.8,40,65.68Z"/><path class="cls-5" d="M106.87,131l-1.62-11.57L93.48,35.48a6.74,6.74,0,0,0-6.67-5.81H80.4V26.14a26.14,26.14,0,0,0-52.28,0v3.53h-8a6.74,6.74,0,0,0-6.67,5.81L.2,130,.07,131a6.73,6.73,0,0,0,6.67,7.67H59.58l-2.52-5.19-4.6-9.51a2.68,2.68,0,0,1,4.82-2.33l5.48,11.34,2.76,5.69H72.3l-3.16-6.53-9.62-19.87a2.68,2.68,0,0,1,4.82-2.33l10.29,21.26,3.62,7.47h6.54l-4.26-8.8-7.82-16.15a2.68,2.68,0,0,1,4.82-2.33l8.24,17,5,10.26h9.46A6.74,6.74,0,0,0,106.87,131ZM83.63,40.19a6,6,0,1,1-6-6A6,6,0,0,1,83.63,40.19Zm-50.16-14A20.82,20.82,0,0,1,54.89,5.36c11.31.33,20.16,9.91,20.16,21.22v3.09H33.47ZM30.78,34a6.24,6.24,0,1,1-6.24,6.24A6.24,6.24,0,0,1,30.78,34ZM85.2,98.36a5,5,0,0,1-4.42,3.52l-21.43,1.46a2.68,2.68,0,0,0-1.81.88L43.11,120.14a5,5,0,0,1-3.68,1.63,5,5,0,0,1-5-5L35,65.64a5,5,0,0,1,8-3.88L83.48,93A5,5,0,0,1,85.2,98.36Z"/><path class="cls-6" d="M80.45,96.92,59,98.39a7.46,7.46,0,0,0-2.75.71L40,65.68Z"/></g><g id="TEXTS"><path class="cls-7" d="M147,89,131.59,40.42h14.27L151,59.5c1.53,5.44,2.86,10.75,4,17h.15c1.17-5.93,2.55-11.54,4-16.76l5.28-19.3h13.82L162.39,89Z"/><path class="cls-7" d="M219.71,69.38H202.27v9h19.5V89h-32.5V40.42h31.49V51H202.27v7.83h17.44Z"/><path class="cls-7" d="M234.8,41.08a101.44,101.44,0,0,1,16-1c7,0,12,1.26,15.39,3.87a14.44,14.44,0,0,1,5.53,11.68c0,4.92-1.64,9.22-4.72,12-3.92,3.51-9.61,5.08-16.16,5.08-1.26,0-2.38-.11-3.17-.16V89H234.8Zm12.87,21.43a17.6,17.6,0,0,0,3,.18c5.06,0,8.22-2.61,8.22-6.79,0-3.62-2.39-6.07-7.34-6.07a18.1,18.1,0,0,0-3.85.31Z"/><path class="cls-7" d="M283.9,41.08a107.1,107.1,0,0,1,15.68-1c7.43,0,12.76,1,16.42,3.78,3.11,2.38,4.78,5.83,4.78,10.59a12.93,12.93,0,0,1-8.31,11.73v.25c3.22,1.39,5,4.49,6.21,8.7,1.46,4.93,3.06,12,4,13.86H309.39c-.74-1.4-2-5.2-3.4-11.18-1.32-5.81-3.1-7-7.11-7h-2.11V89H283.9Zm12.87,20.35h3.38c4.9,0,7.73-2.4,7.73-6s-2.4-5.71-6.72-5.75a21.1,21.1,0,0,0-4.39.29Z"/><path class="cls-7" d="M343.82,89V69.35l-15.3-28.93h14.91l4.12,10.92c1.33,3.41,2.21,5.86,3.28,9H351c1-3,1.93-5.66,3.13-9l4-10.92h14.65L356.82,68.86V89Z"/><path class="cls-7" d="M381.91,40.42h12.87V61h.16c1-1.82,2.05-3.6,3.12-5.35l9.32-15.26h16L407.94,61.08,424,89H408.88L398.67,69.27l-3.89,5V89H381.91Z"/><path class="cls-8" d="M203.1,109.59c0,4.55-2.74,7.45-7.1,7.45s-6.8-3.3-6.8-7.23c0-4.12,2.7-7.39,7-7.39C200.78,102.42,203.1,105.8,203.1,109.59Zm-9.89.15c0,2.67,1.16,4.29,3,4.29s2.91-1.77,2.91-4.32-1.09-4.29-2.93-4.29S193.21,107.14,193.21,109.74Z"/><path class="cls-8" d="M210.37,116.8V102.65h4.48l2.24,4.34a41.2,41.2,0,0,1,2.22,5h.06a53.38,53.38,0,0,1-.28-6v-3.35h3.46V116.8h-4l-2.4-4.7c-.78-1.5-1.7-3.4-2.38-5.11h-.07c.09,1.91.14,4,.14,6.34v3.47Z"/><path class="cls-8" d="M230.42,102.65h3.79v11h5.45v3.17h-9.24Z"/><path class="cls-8" d="M250.54,102.65V116.8h-3.79V102.65Z"/><path class="cls-8" d="M258.41,116.8V102.65h4.47l2.24,4.34a41.2,41.2,0,0,1,2.22,5h.06a53.38,53.38,0,0,1-.28-6v-3.35h3.46V116.8h-4l-2.4-4.7c-.78-1.5-1.7-3.4-2.38-5.11h-.07c.09,1.91.14,4,.14,6.34v3.47Z"/><path class="cls-8" d="M287.33,111.1h-5.09v2.61h5.68v3.09h-9.47V102.65h9.18v3.1h-5.39V108h5.09Z"/><path class="cls-8" d="M305,113a8.7,8.7,0,0,0,3.67.87c1.29,0,1.93-.45,1.93-1.16s-.63-1.08-2.23-1.63c-2.39-.84-4-2.16-4-4.26,0-2.51,2.11-4.43,5.69-4.43a9.2,9.2,0,0,1,3.82.73l-.79,3a7.6,7.6,0,0,0-3.07-.67c-1.16,0-1.79.43-1.79,1s.75,1,2.53,1.67c2.55.94,3.69,2.3,3.69,4.27,0,2.45-1.9,4.52-6,4.52a10,10,0,0,1-4.16-.86Z"/><path class="cls-8" d="M325.5,102.65v5.24h4.6v-5.24h3.79V116.8H330.1v-5.61h-4.6v5.61h-3.79V102.65Z"/><path class="cls-8" d="M355.07,109.59c0,4.55-2.74,7.45-7.11,7.45s-6.79-3.3-6.79-7.23c0-4.12,2.69-7.39,7-7.39C352.75,102.42,355.07,105.8,355.07,109.59Zm-9.89.15c0,2.67,1.16,4.29,3,4.29s2.9-1.77,2.9-4.32-1.09-4.29-2.92-4.29S345.18,107.14,345.18,109.74Z"/><path class="cls-8" d="M362.34,102.85a28.91,28.91,0,0,1,4.66-.31,7.26,7.26,0,0,1,4.49,1.13,4.19,4.19,0,0,1,1.61,3.41,4.59,4.59,0,0,1-1.37,3.49,7,7,0,0,1-4.71,1.48c-.37,0-.7,0-.93,0v4.8h-3.75Zm3.75,6.24a4.6,4.6,0,0,0,.87.06c1.47,0,2.4-.77,2.4-2s-.7-1.77-2.15-1.77a5.13,5.13,0,0,0-1.12.09Z"/></g></g></g></svg>